<?xml version="1.0" encoding="utf-8"?>
<!-- Generator: Adobe Illustrator 16.0.0, SVG Export Plug-In . SVG Version: 6.00 Build 0)  -->
<!DOCTYPE svg PUBLIC "-//W3C//DTD SVG 1.1//EN" "http://www.w3.org/Graphics/SVG/1.1/DTD/svg11.dtd">
<svg version="1.1" id="Layer_1" xmlns="http://www.w3.org/2000/svg" xmlns:xlink="http://www.w3.org/1999/xlink" x="0px" y="0px"
	 width="4384.615px" height="4384.615px" viewBox="0 0 4384.615 4384.615" enable-background="new 0 0 4384.615 4384.615"
	 xml:space="preserve">
<circle cx="2192.308" cy="2192.308" r="2192.308"/>
<g>
	<path fill="#FFFFFF" d="M4060.745,2261.73c0.021-2.858-1.682-4.435-3.703-4.847c-2.472,4.012-4.924,8.039-7.295,12.113
		c-0.123,0.635-0.374,1.246-0.783,1.787c-0.363,0.469-0.702,0.947-1.053,1.421c-4.117,7.261-7.943,14.68-11.123,22.418
		c-0.744,1.814-2.033,2.668-3.343,2.816c-2.542,4.388-5.153,8.746-7.681,13.181c-0.451,0.793-0.961,1.332-1.492,1.666
		c-4.678,9.054-9.947,17.844-15.705,26.417c-4.761,7.089-9.889,13.886-15.176,20.559c-1.559,1.104-3.197,2.115-4.988,2.978
		c0.39-0.232-0.379-0.062-0.998,0.137c-0.049-0.438-0.586-2.439-0.656-3.149c-0.008-0.321-0.041-0.625-0.086-0.921
		c8.885-21.737,16.7-44.444,23.387-68.131c2.72-7.34,5.553-14.637,8.277-21.976c5.307-14.301,10.623-28.54,15.229-43.092
		c8.988-28.399,14.387-57.538,17.002-87.191c3.006-34.109,2.367-68.667-1.596-102.814c-0.149-44.968-5.13-90.863-18.197-134.031
		c-0.826-15.671-3.743-31.308-8.148-46.52c-2-10.942-4.171-21.841-7.301-32.559c-3.287-11.265-7.912-24.827-15.389-35.31
		c-0.581-1.984-1.152-3.867-1.712-5.646c-0.12-0.127-0.24-0.254-0.36-0.38c-1.162-3.674-2.273-6.897-3.324-9.63
		c-0.104-2.475-1.07-4.565-2.691-6.214c-1.248-2.462-2.363-3.994-3.322-4.54c-0.193-1.007-0.904-1.929-1.937-2.137
		c-2.071-0.417-4.409-0.628-6.06,0.873c-0.346-0.176-0.719-0.343-1.129-0.501c-0.373-0.143-0.785-0.193-1.205-0.169
		c-0.159-0.207-0.324-0.409-0.481-0.617c-0.214-0.171-0.424-0.347-0.636-0.521c-1.301,0.978-2.533,2.015-3.614,3.135
		c0.26,0.592,0.508,1.189,0.755,1.787c-4.902,12.059-1.727,25.88,1.027,38.15c0.911,4.062,1.892,8.141,2.838,12.237
		c-1.293,5.229-0.537,11.31-0.395,16.546c0.184,6.763,0.613,13.474,1.398,20.194c0.146,1.245,0.617,2.267,1.285,3.062
		c-14.531,114.516-64.555,158.354-139.592,158.796c-0.768,0.004-1.534,0.006-2.307,0.001c-0.047,0-0.096-0.001-0.145-0.001
		c-41.518-0.318-90.535-13.618-145.322-35.387c-0.467-0.976-1.133-1.851-1.973-2.483c-1.682-1.267-3.424-2.337-5.066-3.432
		c-0.984-2.634-1.059-5.493,0.564-8.715c0.223-0.442,0.469-0.869,0.729-1.287c0.92-0.324,1.837-0.654,2.762-0.964
		c7.294-2.444,14.77-4.271,22.324-5.698c2.842,0.487,5.75,0.74,8.756,0.759c0.138,0.001,0.261-0.018,0.394-0.025
		c1.194-0.515,2.392-1.021,3.595-1.516c0.51-0.53,0.891-1.161,1.133-1.85c1.135-0.691,1.847-1.805,2.193-3.064
		c-5.039-0.471-10.061-1.125-15.044-1.923c-9.25-1.482-18.414-3.436-27.435-5.938c-12.892-1.088-26.156-3.107-37.74-9
		c-2.096-0.109-4.191-0.213-6.286-0.342c-7.907-2.125-15.758-4.401-23.546-6.491c-11.562-3.103-23.201-4.855-34.998-6.769
		c-7.105-1.152-14.271-2.45-21.114-4.669c-0.013-0.812-0.572-1.644-1.643-1.764c-1.927-0.215-3.825-0.695-5.726-1.09
		c-1.441-0.661-2.863-1.374-4.256-2.16c-1.263-0.968-2.667-0.816-3.812-0.106c-120.436-62.319-256.669-141.925-396.676-207.477
		c2.676,0.444,5.355,0.859,8.044,1.21c14.839,1.935,30.222,2.733,44.849-1.045c8.144-2.104,16.766-6.37,21.451-12.961
		c-0.88,0.004-1.76,0.002-2.639-0.012c-18.354-0.28-36.468-3.428-54.339-7.4c-18.556-4.125-36.876-9.251-55.135-14.519
		c-4.736-1.366-9.42-2.84-14.081-4.363c-20.73-3.869-41.284-8.749-61.587-14.453c-8.344-3.896-16.68-7.813-25.117-11.505
		c-9.842-4.305-19.895-7.535-30.026-11.066c-12.947-4.513-25.647-9.695-38.598-14.198c-6.248-2.172-12.92-5.045-19.481-5.97
		c-5.315-0.749-10.854-0.179-15.961-2.012c-0.734-0.264-1.433-0.384-2.093-0.397c-6.902-2.124-13.863-4.047-20.912-5.649
		c-12.94-2.941-25.96-4.388-39.138-5.698c-11.97-1.19-23.875-2.558-35.61-5.155c-0.567-0.125-1.092-0.057-1.534,0.144
		c-25.249-4.031-50.296-6.736-75.069-7.937c-0.049-0.002-0.097-0.004-0.146-0.007c-2.172-0.105-4.342-0.197-6.51-0.279
		c-0.759-0.029-1.519-0.059-2.278-0.085c-0.762-0.025-1.523-0.049-2.285-0.071c-1.258-0.038-2.517-0.072-3.773-0.103
		c-0.418-0.01-0.835-0.021-1.252-0.03c-97.601-2.141-190.656,20.042-274.608,78.421c4.173-10.795,10.319-20.681,19.562-28.102
		c4.628-3.715-1.602-11.805-6.354-8.236c-15.58,11.695-31.226,23.268-45.75,36.126c-0.51,0.268-1.01,0.599-1.488,1.013
		c-0.531,0.46-1.042,0.94-1.565,1.408c-0.464,0.186-0.927,0.437-1.382,0.775c-6.846,5.087-12.575,11.32-17.283,18.283
		c-0.333,0.375-0.675,0.739-1.006,1.116c-11.683,13.302-20.666,28.145-30.854,42.528c-8.833,12.472-17.892,24.836-25.761,37.944
		c-2.227,2.73-4.292,5.597-6.316,8.475c-1.76,2.501-4.143,5.22-5.241,8.112c-0.099,0.26-0.064,0.53,0.047,0.769
		c-2.8,4.397-5.431,8.888-7.904,13.477c-27.767,39.327-53.82,84.952-77.899,137.559c-3.875,8.466-7.431,16.898-10.739,25.303
		c-0.673,0.594-1.241,1.269-1.733,2.011c-0.219-0.05-0.438-0.099-0.663-0.12c-0.115,0.652-0.259,1.313-0.42,1.977
		c-0.11,0.21-0.221,0.429-0.329,0.642c-2.598,3.337-5.332,6.552-8.316,9.349c-1.189,0.961-2.404,1.882-3.66,2.732
		c-2.979,2.016-6.02,3.681-9.117,5.171c-1.838,0.58-3.779,0.955-5.822,1.117c-2.043-0.163-3.984-0.537-5.822-1.117
		c-3.098-1.49-6.139-3.155-9.117-5.171c-1.256-0.85-2.471-1.771-3.66-2.732c-2.984-2.797-5.72-6.012-8.316-9.349
		c-0.108-0.213-0.219-0.432-0.329-0.642c-0.161-0.663-0.305-1.325-0.42-1.977c-0.225,0.021-0.444,0.07-0.663,0.12
		c-0.492-0.742-1.061-1.417-1.733-2.011c-3.309-8.405-6.864-16.837-10.739-25.303c-24.079-52.607-50.133-98.232-77.9-137.559
		c-2.473-4.589-5.104-9.079-7.903-13.477c0.111-0.239,0.146-0.509,0.047-0.769c-1.099-2.892-3.481-5.611-5.241-8.112
		c-2.024-2.878-4.09-5.745-6.316-8.475c-7.869-13.108-16.928-25.472-25.761-37.944c-10.188-14.383-19.172-29.227-30.854-42.528
		c-0.331-0.377-0.673-0.742-1.006-1.116c-4.708-6.962-10.438-13.195-17.283-18.283c-0.455-0.338-0.918-0.589-1.382-0.775
		c-0.523-0.467-1.034-0.947-1.565-1.408c-0.479-0.414-0.979-0.745-1.488-1.013c-14.524-12.859-30.17-24.431-45.75-36.126
		c-4.753-3.568-10.982,4.521-6.354,8.236c9.243,7.421,15.39,17.307,19.562,28.102c-83.952-58.379-177.007-80.562-274.608-78.421
		c-0.417,0.009-0.836,0.021-1.253,0.03c-1.256,0.03-2.513,0.064-3.771,0.103c-0.763,0.022-1.525,0.046-2.289,0.071
		c-0.756,0.026-1.513,0.056-2.269,0.085c-2.172,0.081-4.347,0.174-6.524,0.279c-0.045,0.002-0.091,0.004-0.136,0.006
		c-24.775,1.201-49.823,3.905-75.072,7.937c-0.442-0.201-0.967-0.27-1.534-0.144c-11.735,2.597-23.641,3.965-35.61,5.155
		c-13.178,1.31-26.197,2.757-39.138,5.698c-7.049,1.602-14.01,3.525-20.912,5.649c-0.66,0.013-1.358,0.134-2.093,0.397
		c-5.106,1.833-10.646,1.263-15.961,2.012c-6.562,0.925-13.233,3.798-19.481,5.97c-12.95,4.502-25.65,9.685-38.598,14.198
		c-10.132,3.531-20.185,6.761-30.026,11.066c-8.438,3.691-16.773,7.609-25.117,11.505c-20.303,5.704-40.856,10.584-61.587,14.453
		c-4.661,1.523-9.345,2.997-14.081,4.363c-18.259,5.268-36.579,10.394-55.135,14.519c-17.871,3.972-35.985,7.12-54.339,7.4
		c-0.879,0.014-1.759,0.016-2.639,0.012c4.686,6.591,13.308,10.857,21.451,12.961c14.627,3.778,30.01,2.979,44.849,1.045
		c2.688-0.351,5.368-0.766,8.044-1.21c-140.007,65.551-276.24,145.157-396.676,207.477c-1.146-0.71-2.55-0.861-3.812,0.106
		c-1.393,0.786-2.814,1.5-4.256,2.16c-1.9,0.396-3.799,0.875-5.726,1.09c-1.07,0.12-1.63,0.952-1.643,1.764
		c-6.843,2.22-14.009,3.517-21.114,4.669c-11.797,1.914-23.437,3.667-34.998,6.769c-7.788,2.09-15.639,4.366-23.546,6.491
		c-2.095,0.129-4.19,0.233-6.286,0.342c-11.584,5.893-24.849,7.912-37.74,9c-9.021,2.501-18.185,4.455-27.435,5.938
		c-4.983,0.799-10.005,1.452-15.044,1.923c0.347,1.259,1.059,2.373,2.193,3.064c0.242,0.688,0.623,1.32,1.133,1.85
		c1.203,0.494,2.4,1.001,3.595,1.516c0.133,0.007,0.256,0.026,0.394,0.025c3.006-0.019,5.914-0.272,8.756-0.759
		c7.555,1.427,15.03,3.254,22.324,5.698c0.925,0.31,1.842,0.64,2.761,0.964c0.261,0.418,0.507,0.845,0.729,1.287
		c1.623,3.223,1.549,6.082,0.564,8.715c-1.643,1.094-3.385,2.165-5.066,3.432c-0.84,0.632-1.506,1.508-1.973,2.483
		c-54.788,21.769-103.806,35.068-145.323,35.387c-0.048,0-0.096,0.001-0.145,0.001c-0.771,0.005-1.538,0.003-2.305-0.001
		c-75.037-0.442-125.061-44.28-139.592-158.796c0.667-0.794,1.139-1.817,1.285-3.062c0.785-6.721,1.215-13.432,1.398-20.194
		c0.142-5.236,0.899-11.317-0.394-16.546c0.946-4.096,1.926-8.176,2.838-12.237c2.754-12.27,5.929-26.091,1.026-38.15
		c0.247-0.598,0.495-1.195,0.755-1.788c-1.082-1.12-2.313-2.157-3.614-3.135c-0.212,0.175-0.422,0.35-0.636,0.521
		c-0.158,0.208-0.322,0.41-0.481,0.617c-0.42-0.024-0.833,0.026-1.205,0.169c-0.412,0.158-0.785,0.325-1.129,0.501
		c-1.65-1.501-3.989-1.29-6.06-0.873c-1.032,0.208-1.744,1.13-1.937,2.137c-0.958,0.546-2.075,2.078-3.323,4.54
		c-1.621,1.648-2.587,3.739-2.691,6.214c-1.05,2.733-2.163,5.957-3.325,9.631c-0.12,0.127-0.239,0.253-0.359,0.38
		c-0.56,1.779-1.131,3.662-1.712,5.646c-7.477,10.483-12.102,24.045-15.39,35.31c-3.129,10.718-5.301,21.617-7.3,32.559
		c-4.405,15.212-7.322,30.849-8.148,46.52c-13.067,43.168-18.048,89.063-18.197,134.031c-3.963,34.148-4.602,68.705-1.596,102.814
		c2.614,29.653,8.014,58.792,17.002,87.191c4.605,14.552,9.921,28.791,15.229,43.092c2.725,7.339,5.558,14.636,8.277,21.976
		c6.687,23.687,14.502,46.394,23.387,68.131c-0.045,0.296-0.079,0.6-0.086,0.921c-0.07,0.71-0.607,2.712-0.657,3.149
		c-0.618-0.199-1.387-0.369-0.997-0.137c-1.791-0.862-3.43-1.873-4.988-2.978c-5.287-6.673-10.415-13.47-15.176-20.559
		c-5.758-8.573-11.027-17.363-15.705-26.417c-0.531-0.334-1.041-0.873-1.492-1.666c-2.527-4.435-5.139-8.793-7.681-13.181
		c-1.311-0.148-2.599-1.002-3.343-2.816c-3.18-7.738-7.006-15.157-11.123-22.418c-0.351-0.474-0.689-0.952-1.053-1.421
		c-0.409-0.541-0.66-1.152-0.783-1.787c-2.371-4.074-4.823-8.102-7.295-12.113c-2.021,0.412-3.725,1.988-3.703,4.847
		c0.031,4.069,1.105,7.966,1.383,12c0.113,1.646,0.817,2.896,1.811,3.747c-0.461,1.195-0.625,2.582-0.346,4.133
		c1.203,6.695,3.288,13.113,5.47,19.52c0.139,0.49,0.293,0.978,0.44,1.467c-0.182,0.938-0.168,1.947,0.115,3.006
		c1.584,5.93,4.124,11.5,6.826,16.99c1.904,7.104,4.5,13.959,7.666,20.547c3.13,7.117,6.869,13.979,11.408,20.11
		c6.393,18.634,16.527,35.911,27.18,52.389c7.91,12.237,16.064,24.271,24.834,35.864c3.518,6.039,7.297,11.931,11.52,17.58
		c16.983,22.721,37.475,42.086,58.92,60.528c22.359,19.229,42.84,40.68,66.173,58.772c23.539,18.253,49.734,34.818,77.345,46.146
		c4.747,1.947,9.619,3.484,14.565,4.779c75.102,46.193,160.878,78.755,252.669,99.137c0.01,0.002,0.021,0.004,0.032,0.007
		c3.248,0.722,6.504,1.427,9.767,2.117c0.589,0.125,1.179,0.247,1.768,0.37c9.037,1.896,18.128,3.677,27.273,5.341
		c1.567,0.286,3.134,0.571,4.705,0.851c2.355,0.418,4.713,0.829,7.075,1.232c2.097,0.357,4.199,0.704,6.302,1.051
		c1.981,0.325,3.959,0.658,5.945,0.974c3.909,0.621,7.828,1.219,11.753,1.799c1.512,0.224,3.028,0.436,4.542,0.653
		c2.999,0.431,6.002,0.851,9.011,1.258c1.37,0.186,2.739,0.37,4.111,0.551c4.173,0.549,8.353,1.081,12.542,1.585
		c0.101,0.013,0.202,0.025,0.303,0.038c4.687,0.562,9.385,1.092,14.092,1.599c0.457,0.049,0.915,0.096,1.372,0.144
		c4.446,0.475,8.902,0.922,13.365,1.347c0.237,0.022,0.475,0.046,0.713,0.068c14.637,1.382,29.361,2.498,44.157,3.354
		c1.919,0.964,3.899,1.815,5.688,2.715c-0.035,0.613-0.076,1.226-0.115,1.838c0.267-0.175,0.539-0.345,0.791-0.533
		c3.836-2.874,7.057,3.358,4.372,6.372c0.905,1.756-0.132,4.558-2.248,4.647c-1.75,0.074-3.501,0.149-5.251,0.225
		c-6.036,2.483-13.32,3.298-19.041,4.176c-14.568,2.237-29.259,2.971-43.989,3.037c-10.339,0.047-20.714-0.388-31.011-1.479
		c0.336,2.531,1.988,5.074,4.45,6.032c14.516,5.649,30.417,9.155,46.134,10.242c4.003,1.071,8.031,1.973,12.093,2.41
		c5.329,1.671,10.7,2.825,16.146,2.436c9.52,1.896,19.134,3.077,28.669,2.694c1.129,0.171,2.26,0.333,3.394,0.474
		c9.177,1.139,17.28,0.39,26.021-1.704c10.103-0.141,20.224-0.963,30.148-1.739c31.037-2.427,61.46-6.659,91.894-13.312
		c30.962-6.769,61.568-14.996,92.46-22.06c29.106-6.655,58.762-10.457,87.818-17.261c5.741-1.345,11.451-2.788,17.112-4.392
		c2.128-0.465,4.251-0.957,6.363-1.501c41.362-10.653,81.701-23.83,120.008-42.837c71.624-21.221,140.624-47.537,205.016-78.342
		c-3.362,3.654-6.967,7.205-10.762,10.602c-0.004,0.09,0.006,0.18-0.004,0.27c1.439,1.157,1.498,4.176-0.559,5.149
		c-2.66,1.259-5.286,2.587-7.899,3.94c-0.404,0.339-0.828,0.652-1.237,0.985c-2.456,2.546-4.957,5.05-7.491,7.522
		c-0.132,1.912-1.278,4.061-3.456,4.078c-0.264,0.002-0.527,0.016-0.792,0.02c-5.834,5.513-11.837,10.832-17.944,15.937
		c-5.444,4.55-10.982,9.024-16.654,13.319c2.189,2.125,5.524,3.17,9.028,1.557c10.688-4.922,21.329-9.951,31.862-15.198
		c25.536-12.722,50.455-26.63,74.173-42.514c24.744-16.571,48.153-35.13,70.973-54.243c11.679-9.782,23.157-19.835,34.015-30.529
		c9.375-9.234,18.335-18.67,28.232-27.365c5.937-5.216,12.154-10.423,18.24-15.818c122.871-96.535,206.226-214.896,222.701-346.767
		c0.758-0.145,1.521-0.253,2.283-0.337c0.762,0.084,1.525,0.192,2.283,0.337c16.476,131.87,99.83,250.231,222.701,346.767
		c6.086,5.396,12.304,10.603,18.24,15.818c9.897,8.695,18.857,18.131,28.232,27.365c10.857,10.694,22.336,20.747,34.015,30.529
		c22.819,19.113,46.229,37.672,70.973,54.243c23.718,15.884,48.637,29.792,74.173,42.514c10.533,5.247,21.174,10.276,31.862,15.198
		c3.504,1.613,6.839,0.568,9.028-1.557c-5.672-4.295-11.21-8.77-16.654-13.319c-6.107-5.104-12.11-10.424-17.944-15.937
		c-0.265-0.004-0.528-0.018-0.792-0.02c-2.178-0.018-3.324-2.166-3.456-4.078c-2.534-2.473-5.035-4.977-7.491-7.522
		c-0.409-0.333-0.833-0.646-1.237-0.985c-2.613-1.354-5.239-2.682-7.899-3.94c-2.057-0.974-1.998-3.992-0.559-5.149
		c-0.01-0.09,0-0.18-0.004-0.27c-3.795-3.396-7.4-6.947-10.762-10.602c64.393,30.805,133.393,57.121,205.016,78.342
		c38.309,19.007,78.646,32.184,120.009,42.837c2.112,0.544,4.235,1.036,6.363,1.501c5.661,1.604,11.371,3.047,17.112,4.392
		c29.057,6.804,58.712,10.605,87.818,17.261c30.892,7.063,61.498,15.291,92.46,22.06c30.434,6.653,60.856,10.886,91.894,13.312
		c9.925,0.776,20.046,1.599,30.148,1.739c8.74,2.094,16.844,2.843,26.021,1.704c1.134-0.141,2.265-0.303,3.394-0.474
		c9.535,0.383,19.149-0.798,28.669-2.694c5.446,0.39,10.817-0.765,16.146-2.436c4.062-0.438,8.09-1.339,12.093-2.41
		c15.717-1.087,31.618-4.593,46.134-10.242c2.462-0.958,4.114-3.501,4.45-6.032c-10.297,1.091-20.672,1.525-31.011,1.479
		c-14.73-0.066-29.421-0.8-43.989-3.037c-5.721-0.878-13.005-1.692-19.041-4.176c-1.75-0.075-3.501-0.15-5.251-0.225
		c-2.116-0.09-3.153-2.892-2.248-4.647c-2.685-3.014,0.536-9.246,4.372-6.372c0.252,0.188,0.524,0.358,0.791,0.533
		c-0.039-0.612-0.08-1.225-0.115-1.838c1.789-0.899,3.77-1.751,5.688-2.715c14.797-0.856,29.521-1.973,44.158-3.355
		c0.237-0.021,0.474-0.045,0.71-0.067c4.465-0.425,8.922-0.872,13.369-1.347c0.456-0.048,0.913-0.095,1.369-0.144
		c4.707-0.507,9.406-1.036,14.094-1.599c0.1-0.012,0.199-0.025,0.298-0.037c4.191-0.505,8.373-1.037,12.548-1.586
		c1.37-0.181,2.739-0.365,4.107-0.551c3.01-0.407,6.016-0.828,9.016-1.259c1.513-0.217,3.027-0.429,4.537-0.652
		c3.927-0.58,7.847-1.178,11.756-1.799c1.984-0.315,3.96-0.647,5.939-0.974c2.105-0.346,4.209-0.693,6.31-1.052
		c2.36-0.402,4.716-0.813,7.068-1.231c1.573-0.279,3.144-0.564,4.713-0.852c9.142-1.664,18.23-3.443,27.265-5.339
		c0.591-0.124,1.182-0.246,1.772-0.372c3.263-0.689,6.517-1.395,9.764-2.115c0.013-0.004,0.025-0.006,0.038-0.009
		c91.789-20.382,177.564-52.943,252.664-99.136c4.947-1.295,9.818-2.832,14.566-4.779c27.61-11.328,53.806-27.894,77.345-46.146
		c23.333-18.093,43.813-39.544,66.173-58.772c21.445-18.442,41.937-37.808,58.92-60.528c4.223-5.649,8.002-11.541,11.52-17.58
		c8.77-11.594,16.924-23.627,24.834-35.864c10.652-16.478,20.787-33.755,27.18-52.389c4.539-6.131,8.278-12.993,11.408-20.11
		c3.166-6.588,5.762-13.443,7.666-20.547c2.702-5.49,5.242-11.061,6.826-16.99c0.283-1.059,0.297-2.068,0.115-3.006
		c0.146-0.489,0.302-0.977,0.44-1.467c2.181-6.406,4.267-12.824,5.47-19.52c0.279-1.551,0.115-2.938-0.346-4.133
		c0.993-0.852,1.697-2.102,1.811-3.747C4059.64,2269.696,4060.714,2265.8,4060.745,2261.73z"/>
</g>
</svg>
